<svg width="135" height="123" viewBox="0 0 135 123" fill="none" xmlns="http://www.w3.org/2000/svg">
<path d="M67.915 2.00195C85.6809 2.13666 98.8194 8.06526 108.426 17.0273C118.071 26.0254 124.269 38.1918 127.896 50.9365C131.523 63.6768 132.547 76.8827 131.927 87.8125C131.617 93.2752 130.899 98.1317 129.908 102.049C128.904 106.02 127.667 108.835 126.438 110.38C125.305 111.803 122.885 113.286 119.069 114.657C115.33 116.001 110.536 117.139 104.996 118.054C93.9235 119.882 80.0957 120.786 66.2549 120.766C52.4138 120.745 38.6409 119.8 27.6797 117.961C22.1947 117.041 17.472 115.906 13.8184 114.578C10.0796 113.219 7.78514 111.77 6.77051 110.423C5.65101 108.936 4.52896 106.147 3.6543 102.161C2.79302 98.2361 2.21453 93.3512 2.04883 87.8496C1.71736 76.8432 3.04427 63.5173 6.94727 50.6807C10.852 37.8384 17.2996 25.5996 27.126 16.6211C36.912 7.67964 50.158 1.86737 67.915 2.00195Z" fill="#62839A" stroke="black" stroke-width="4"/>
<ellipse cx="56.0515" cy="75.211" rx="6.38551" ry="8.4317" fill="#5B5B5B"/>
<ellipse cx="80.8826" cy="75.211" rx="6.38551" ry="8.4317" fill="#5B5B5B"/>
<ellipse cx="69.5316" cy="107.251" rx="9.93301" ry="1.34907" fill="#C77C7C"/>
</svg>
