<svg width="160" height="110" viewBox="0 0 160 110" fill="none" xmlns="http://www.w3.org/2000/svg">
<path d="M57.8887 7.20508C63.7596 3.86021 71.5307 1.75616 82.04 2.02246C92.5483 2.28876 100.104 4.78314 105.704 8.41797C111.309 12.0559 115.098 16.9286 117.925 22.1787C120.77 27.4619 122.599 33.0369 124.355 38.1211C125.224 40.6343 126.084 43.0503 127.037 45.1758C127.987 47.2941 129.08 49.2437 130.469 50.7705C135.369 56.1599 138.571 58.1648 141.703 60.2842C144.686 62.3022 147.711 64.4876 152.579 70.3408C157.188 75.8831 158.646 82.7744 157.749 89.0146C156.847 95.2941 153.602 100.687 149.097 103.373C148.736 103.588 147.922 103.895 146.504 104.227C145.14 104.546 143.383 104.853 141.271 105.143C137.048 105.722 131.523 106.217 125.109 106.621C112.289 107.429 96.0333 107.866 79.7871 107.902C63.5399 107.939 47.3369 107.574 34.6221 106.785C28.2604 106.39 22.8055 105.891 18.668 105.288C16.5972 104.987 14.8926 104.665 13.5859 104.327C12.2141 103.973 11.4956 103.653 11.2217 103.459C6.82026 100.341 3.42012 95.8574 2.35352 90.3467C1.29229 84.863 2.48448 78.0649 7.82324 70.1836C13.1859 62.267 17.6199 59.3402 21.5303 57.1611C25.5285 54.9331 29.5966 53.2287 33.2598 47.8223C34.2347 46.3833 35.0416 44.5256 35.792 42.5176C36.5457 40.5006 37.3046 38.1553 38.125 35.7334C39.7869 30.8273 41.7788 25.3746 44.8496 20.2861C47.9083 15.2179 52.0149 10.5516 57.8887 7.20508Z" fill="#D2D8BA" stroke="black" stroke-width="4"/>
<ellipse cx="64.7895" cy="56.0411" rx="4.74066" ry="4.67003" fill="#5B5B5B"/>
<ellipse cx="93.2328" cy="57.5968" rx="4.74066" ry="4.67003" fill="#5B5B5B"/>
<path d="M106.665 48.2553C106.665 49.1145 102.597 49.0332 97.5785 49.0332C92.5603 49.0332 88.4922 49.1145 88.4922 48.2553C88.4922 47.3962 92.5603 45.9219 97.5785 45.9219C102.597 45.9219 106.665 47.3962 106.665 48.2553Z" fill="#5B5B5B"/>
<path d="M76.1745 73.8628C76.9687 75.0243 78.6822 75.0243 79.4764 73.8628L82.8707 68.8986C83.7784 67.5712 82.8278 65.7698 81.2198 65.7698H74.4311C72.8231 65.7698 71.8725 67.5712 72.7802 68.8986L76.1745 73.8628Z" fill="#C77C7C"/>
</svg>
