<svg width="267" height="186" viewBox="0 0 267 186" fill="none" xmlns="http://www.w3.org/2000/svg">
<path d="M110.244 70.8516C117.982 49.252 148.934 49.7258 156.651 71.5859C160.506 82.5027 170.881 89.9765 182.487 89.9766H184.253C206.888 89.9766 215.706 119.385 196.807 131.84L195.052 132.996C187.299 138.105 183.269 147.289 184.758 156.453C186.913 169.722 175.355 181.163 162.108 178.872L139.629 174.984C135.59 174.286 131.468 174.214 127.408 174.773L104.405 177.941C91.6603 179.696 80.7778 168.768 82.5859 156.03C83.8559 147.083 79.8533 138.205 72.3076 133.232L70.4395 132.002C51.4666 119.499 60.319 89.9769 83.041 89.9766H84.208C95.7151 89.9764 105.983 82.749 109.863 71.916L110.244 70.8516Z" fill="#C4B7CF" stroke="black" stroke-width="4"/>
<ellipse cx="106.5" cy="132" rx="4.5" ry="5" fill="#5B5B5B"/>
<circle cx="160" cy="132" r="5" fill="#5B5B5B"/>
<path d="M121 156C121 156 127.621 159.938 132.5 159.938C137.379 159.938 144 156 144 156V158.625C144 158.625 137.379 163 132.5 163C127.621 163 121 158.625 121 158.625V156Z" fill="#C77C7C"/>
</svg>
