<svg width="163" height="108" viewBox="0 0 163 108" fill="none" xmlns="http://www.w3.org/2000/svg">
<path d="M123.794 5.13477C131.146 2.78226 137.999 1.43448 143.879 2.22852C149.613 3.00281 154.528 5.82272 158.169 12.1602C161.737 18.3709 161.873 27.197 158.911 37.29C155.965 47.3281 150.04 58.3011 141.995 68.4951C125.853 88.9481 101.603 105.762 76.6826 105.998C64.4001 106.114 52.6003 100.819 42.0684 92.5332C31.5415 84.2515 22.41 73.0781 15.5205 61.7197C8.62178 50.346 4.05643 38.927 2.54688 30.2129C1.7882 25.8331 1.83648 22.3317 2.58398 19.9062C3.29611 17.5958 4.56791 16.4035 6.43262 16.0576C17.0922 14.0812 29.7346 15.257 42.8584 16.7803C55.8431 18.2874 69.3066 20.1375 81.124 19.2568C87.2459 18.8006 94.3393 16.3704 101.572 13.5703C108.918 10.7267 116.44 7.48779 123.794 5.13477Z" fill="#9CCAA3" stroke="black" stroke-width="4"/>
<path d="M61 48.8394C66.657 48.8394 71.2581 42.04 73.5963 46.5381C75.9346 51.0361 67.6376 56.8941 61 56.9987C54.3624 57.1033 46.0654 51.0362 48.4037 46.5381C50.7419 42.04 55.343 48.8394 61 48.8394Z" fill="#5B5B5B"/>
<path d="M78.5 66.5596C81.7637 66.5596 84.4181 62.0267 85.7671 65.0254C87.1161 68.0241 82.3294 71.9294 78.5 71.9991C74.6706 72.0688 69.8839 68.0241 71.2329 65.0254C72.5819 62.0267 75.2363 66.5596 78.5 66.5596Z" fill="#C77C7C"/>
<path d="M94 48.8394C99.657 48.8394 104.258 42.04 106.596 46.5381C108.935 51.0361 100.638 56.8941 94 56.9987C87.3624 57.1033 79.0654 51.0362 81.4037 46.5381C83.7419 42.04 88.343 48.8394 94 48.8394Z" fill="#5B5B5B"/>
</svg>
