<svg width="154" height="133" viewBox="0 0 154 133" fill="none" xmlns="http://www.w3.org/2000/svg">
<path d="M90.7666 2.03223C102.351 1.62194 114.932 5.13432 130.265 14.0752C137.524 18.3082 142.883 25.6971 146.475 34.9248C150.064 44.1449 151.829 55.0595 151.988 66.0869C152.147 77.1094 150.7 88.1561 147.932 97.6123C145.151 107.113 141.098 114.801 136.2 119.327C131.395 123.767 122.414 126.804 110.948 128.537C99.5891 130.255 86.1813 130.641 72.9141 130.088C59.6535 129.536 46.6 128.048 35.9648 126.047C30.6462 125.046 25.9603 123.922 22.1699 122.732C18.3348 121.529 15.5738 120.306 13.9873 119.17C7.21398 114.321 2.58226 104.199 2.05078 94.0508C1.52031 83.9215 5.08145 74.5794 13.6631 70.6113C18.4665 68.3903 21.9373 66.7758 24.457 65.5332C26.9513 64.3031 28.63 63.3825 29.7793 62.5439C31.0126 61.6441 31.7127 60.7835 32.1953 59.7012C32.4062 59.2281 32.5636 58.7367 32.7021 58.3066C32.8478 57.8548 32.9942 57.3985 33.2021 56.8604C33.524 56.0275 33.7223 54.9142 33.8926 53.7842C34.06 52.6731 34.2565 51.1189 34.4727 49.6328C34.9283 46.5003 35.6026 42.6827 36.9395 38.584C39.6014 30.4228 44.8994 21.1084 56.4385 14.0537C68.3182 6.79073 79.172 2.44295 90.7666 2.03223Z" fill="#FFEBEB" stroke="black" stroke-width="4"/>
<ellipse cx="97.7308" cy="78.2552" rx="6.66346" ry="6.4027" fill="#5B5B5B"/>
<path d="M58.1385 72.9705C58.5719 72.266 62.9055 72.6174 64.2059 72.9705C65.5063 73.3237 70.7067 76.8457 70.7067 78.2549C70.7067 79.664 65.0727 83.1879 64.2059 83.5392C63.3391 83.8905 58.5721 84.2447 58.1385 83.5392C57.7049 82.8337 65.0727 79.664 65.0727 78.2549C65.0727 76.8457 57.7051 73.6751 58.1385 72.9705Z" fill="#5B5B5B"/>
<path d="M79.5867 100.083C80.3811 100.964 81.7636 100.964 82.558 100.083L86.719 95.4664C87.8787 94.1797 86.9656 92.1274 85.2334 92.1274H76.9113C75.1791 92.1274 74.266 94.1797 75.4257 95.4664L79.5867 100.083Z" fill="#C77C7C"/>
</svg>
