<svg width="189" height="127" viewBox="0 0 189 127" fill="none" xmlns="http://www.w3.org/2000/svg">
<path d="M172.93 62.5956C186.098 53.7882 185.411 38.9079 176.531 32.004C172.462 28.8405 162.599 23.3775 152.943 18.9948C148.089 16.7916 143.196 14.8189 139.016 13.5252C136.928 12.8792 134.967 12.386 133.248 12.1261C131.584 11.8746 129.902 11.8017 128.515 12.1967C120.888 14.369 116.579 17.9571 116.105 23.0909C115.662 27.8971 118.725 33.3172 123.367 38.8793C128.107 44.5581 136.876 52.585 146.067 58.1842C150.66 60.9823 155.484 63.2516 160.054 64.2661C164.644 65.2849 169.216 65.0798 172.93 62.5956Z" fill="#AFA093" stroke="black" stroke-width="4"/>
<path d="M16.0687 62.5956C2.90082 53.7882 3.58835 38.9079 12.4682 32.004C16.5372 28.8405 26.4003 23.3775 36.0563 18.9948C40.9104 16.7916 45.8033 14.8189 49.983 13.5252C52.0706 12.8792 54.0319 12.386 55.7513 12.1261C57.4153 11.8746 59.0968 11.8017 60.4837 12.1967C68.1112 14.369 72.4201 17.9571 72.8939 23.0909C73.3374 27.8971 70.2743 33.3172 65.6318 38.8793C60.8919 44.5581 52.1232 52.585 42.9324 58.1842C38.3395 60.9823 33.5154 63.2516 28.9449 64.2661C24.3552 65.2849 19.7829 65.0798 16.0687 62.5956Z" fill="#AFA093" stroke="black" stroke-width="4"/>
<path d="M93.375 3.9668C111.476 3.96684 127.86 14.3636 139.638 28.6299C151.417 42.8972 158.844 61.3267 158.844 77.9355C158.844 94.7248 151.246 106.451 139.141 113.877C127.16 121.227 110.873 124.313 93.375 124.313C75.8772 124.313 59.5902 121.226 47.6094 113.877C35.5037 106.451 27.9062 94.7248 27.9062 77.9355C27.9064 61.3267 35.3334 42.8972 47.1123 28.6299C58.8903 14.3636 75.2736 3.9668 93.375 3.9668Z" fill="#AFA093" stroke="black" stroke-width="4"/>
<path d="M76.1611 63.1592C73.0719 63.1593 70.4092 65.2688 70.4092 68.0498C70.4093 70.8307 73.072 72.9403 76.1611 72.9404C79.2504 72.9404 81.9139 70.8308 81.9141 68.0498C81.9141 65.2687 79.2505 63.1592 76.1611 63.1592Z" fill="#5B5B5B" stroke="black"/>
<path d="M76.1611 63.1592C73.0719 63.1593 70.4092 65.2688 70.4092 68.0498C70.4093 70.8307 73.072 72.9403 76.1611 72.9404C79.2504 72.9404 81.9139 70.8308 81.9141 68.0498C81.9141 65.2687 79.2505 63.1592 76.1611 63.1592Z" fill="#5B5B5B" stroke="black"/>
<path d="M112.93 63.1592C109.84 63.1593 107.178 65.2688 107.178 68.0498C107.178 70.8307 109.841 72.9403 112.93 72.9404C116.019 72.9404 118.682 70.8308 118.683 68.0498C118.683 65.2687 116.019 63.1592 112.93 63.1592Z" fill="#5B5B5B" stroke="black"/>
<path d="M93.8691 121.69C95.4855 123.188 97.9823 123.188 99.5986 121.69C102.411 119.085 100.567 114.382 96.7334 114.382C92.9001 114.382 91.0572 119.085 93.8691 121.69Z" fill="#5B5B5B" stroke="black"/>
</svg>
