<svg width="160" height="156" viewBox="0 0 160 156" fill="none" xmlns="http://www.w3.org/2000/svg">
<path d="M154.947 101.21C111.951 98.5918 39.6918 91.7916 7.86636 101.21C-7.85729 24.6431 25.8782 7.43458 81.4067 4.27265C136.935 1.11073 151.372 24.86 154.947 101.21Z" fill="#C1D5EF"/>
<path d="M105.815 151.146C86.5344 151.847 80.4375 140.087 79.5845 93.0686H132.046C130.984 135.963 125.816 149.947 105.815 151.146Z" fill="#C1D5EF"/>
<path d="M32.952 138.056C13.671 138.757 7.5742 126.997 6.72117 79.9787H59.1828C58.1211 122.873 52.9523 136.857 32.952 138.056Z" fill="#C1D5EF"/>
<path d="M70.1096 125.634C57.9661 125.634 57.268 116.754 56.9969 93.0686H80.8517C82.7585 118.261 79.8818 124.315 70.1096 125.634Z" fill="#C1D5EF"/>
<path d="M137.632 138.085C118.963 138.085 117.89 126.071 117.473 94.0264H154.146C157.077 128.11 152.655 136.301 137.632 138.085Z" fill="#C1D5EF"/>
<path d="M39.3952 65.3692C40.6571 59.4761 51.4008 63.207 51.2705 62.9103C63.1387 63.5165 57.2592 40.8821 69.4786 46.619C76.1606 49.608 68.9566 69.7922 56.1556 71.4811C43.3546 73.17 38.1332 71.2623 39.3952 65.3692Z" fill="#5B5B5B"/>
<path d="M123.015 54.7703C119.89 49.5778 110.929 56.4554 110.956 56.1337C99.9064 60.3996 98.0677 37.12 88.3656 46.3576C83.0115 51.2686 96.4475 68.1568 109.132 65.7758C121.817 63.3948 126.14 59.9628 123.015 54.7703Z" fill="#5B5B5B"/>
<path d="M91.8434 95.7175C96.0535 95.7175 104.536 88.9322 105.279 82.504C106.022 76.0759 103.359 76.1652 91.8434 76.1652C80.3274 76.1652 78.299 76.5223 78.4079 82.504C78.5168 88.4858 87.6333 95.7175 91.8434 95.7175Z" fill="#C77C7C"/>
<path d="M81.293 2.27637C109.296 0.681811 127.674 5.83166 139.275 21.7461C150.67 37.3773 155.16 62.9908 156.945 101.116L157.049 103.342L156.795 103.326C157.378 115.094 156.734 123.284 154.479 128.912C153.031 132.524 150.904 135.135 148.022 136.937C145.189 138.708 141.767 139.608 137.868 140.071L137.75 140.085H137.632C133.857 140.085 130.617 139.612 127.875 138.519C127.872 138.526 127.87 138.534 127.866 138.542C125.783 143.322 123.003 146.867 119.291 149.275C115.597 151.672 111.153 152.83 105.935 153.143L105.888 153.145C100.883 153.327 96.4939 152.712 92.7695 150.748C89.005 148.762 86.1371 145.513 83.9746 140.842C81.929 136.423 80.4715 130.622 79.4609 123.171C78.8386 123.933 78.1338 124.596 77.3369 125.162C75.3575 126.568 72.9899 127.264 70.377 127.616L70.2441 127.634H70.1094C66.8495 127.634 64.084 127.04 61.8555 125.532C59.6239 124.022 58.1838 121.767 57.2295 118.938C56.5865 121.34 55.8506 123.507 55.0029 125.452C52.9202 130.232 50.1395 133.777 46.4277 136.186C42.7336 138.582 38.29 139.74 33.0713 140.053L33.0244 140.055C28.0193 140.237 23.6307 139.623 19.9062 137.658C16.1417 135.673 13.2738 132.424 11.1113 127.752C8.21122 121.487 6.48901 112.446 5.55371 99.8604C-1.86152 62.3843 2.58591 38.6073 16.46 23.8447C30.4492 8.95976 53.4954 3.85923 81.293 2.27637Z" stroke="black" stroke-width="4"/>
</svg>
