<svg width="167" height="121" viewBox="0 0 167 121" fill="none" xmlns="http://www.w3.org/2000/svg">
<path d="M84.4452 26.6185C137.939 -25.8814 179.544 34.6178 156.541 67.1181C133.537 99.6184 83.5352 114.118 83.5352 114.118C83.5352 114.118 34.9449 109.119 9.94524 70.6183C-15.0544 32.118 21.4395 -19.3814 84.4452 26.6185Z" fill="#EBB3B3"/>
<path d="M84.4452 26.6185C137.939 -25.8814 179.544 34.6178 156.541 67.1181C133.537 99.6184 83.5352 114.118 83.5352 114.118C83.5352 114.118 34.9449 109.119 9.94524 70.6183C-15.0544 32.118 21.4395 -19.3814 84.4452 26.6185Z" fill="#EBB3B3"/>
<path d="M84.4452 26.6185C137.939 -25.8814 179.544 34.6178 156.541 67.1181C133.537 99.6184 83.5352 114.118 83.5352 114.118C83.5352 114.118 34.9449 109.119 9.94524 70.6183C-15.0544 32.118 21.4395 -19.3814 84.4452 26.6185Z" stroke="black" stroke-width="4"/>
<path d="M107.446 62.8779C107.575 63.2316 107.564 63.5083 107.442 63.7451C107.313 63.9975 107.014 64.29 106.392 64.5713C105.152 65.1313 103.67 65.2237 102.105 65.0166C100.544 64.8099 98.9383 64.3101 97.4824 63.7275C96.029 63.1459 94.7395 62.4879 93.8125 61.9746C93.3495 61.7182 92.9775 61.4988 92.7227 61.3438C92.5954 61.2663 92.4975 61.2047 92.4316 61.1631L92.3389 61.1045C92.337 61.1033 92.3358 61.1021 92.335 61.1016L92.334 61.1006L92.3174 61.0898L92.3008 61.0811L92.2988 61.0801C92.2969 61.079 92.2933 61.0766 92.2891 61.0742C92.2807 61.0695 92.2679 61.0623 92.251 61.0527C92.2165 61.0332 92.1647 61.0037 92.0986 60.9648C91.9663 60.8869 91.7759 60.7715 91.5469 60.624C91.0877 60.3282 90.4773 59.9053 89.8701 59.3965C89.2608 58.8859 88.6681 58.3003 88.2314 57.6807C87.7923 57.0575 87.5381 56.4388 87.5381 55.8516C87.5381 54.5749 88.2158 53.4223 89.1484 52.4688C90.0782 51.5182 91.2112 50.8192 91.9912 50.459C92.8256 50.0736 95.3 48.8639 98.0762 48.0088C99.4639 47.5814 100.909 47.2479 102.247 47.1484C103.592 47.0485 104.78 47.1885 105.691 47.6572C106.139 47.8875 106.329 48.119 106.403 48.3086C106.476 48.4944 106.474 48.7289 106.349 49.043C106.084 49.7043 105.367 50.494 104.432 51.3291C103.509 52.1535 102.472 52.9412 101.616 53.6406C101.197 53.9832 100.817 54.3087 100.537 54.5967C100.397 54.7405 100.269 54.8869 100.173 55.0322C100.083 55.1681 99.9843 55.3543 99.9717 55.5684C99.9567 55.8237 100.078 56.0408 100.175 56.1797C100.282 56.3343 100.428 56.4906 100.589 56.6436C100.911 56.9508 101.357 57.3052 101.854 57.6826C102.867 58.4508 104.118 59.3393 105.214 60.2705C105.759 60.7336 106.251 61.1967 106.644 61.6455C107.04 62.0984 107.313 62.5128 107.446 62.8779Z" fill="#5B5B5B" stroke="black"/>
<path d="M54.6299 62.8779C54.501 63.2316 54.5123 63.5083 54.6338 63.7451C54.7633 63.9975 55.0622 64.29 55.6846 64.5713C56.9238 65.1313 58.4061 65.2237 59.9707 65.0166C61.5321 64.8099 63.1379 64.3101 64.5938 63.7275C66.0472 63.1459 67.3367 62.4879 68.2637 61.9746C68.7267 61.7182 69.0987 61.4988 69.3535 61.3438C69.4808 61.2663 69.5787 61.2047 69.6445 61.1631L69.7373 61.1045C69.7392 61.1033 69.7404 61.1021 69.7412 61.1016L69.7422 61.1006L69.7588 61.0898L69.7754 61.0811L69.7773 61.0801C69.7792 61.079 69.7829 61.0766 69.7871 61.0742C69.7955 61.0695 69.8083 61.0623 69.8252 61.0527C69.8597 61.0332 69.9115 61.0037 69.9775 60.9648C70.1098 60.8869 70.3003 60.7715 70.5293 60.624C70.9885 60.3282 71.5988 59.9053 72.2061 59.3965C72.8154 58.8859 73.408 58.3003 73.8447 57.6807C74.2839 57.0575 74.5381 56.4388 74.5381 55.8516C74.5381 54.5749 73.8604 53.4223 72.9277 52.4688C71.998 51.5182 70.8649 50.8192 70.085 50.459C69.2505 50.0736 66.7762 48.8639 64 48.0088C62.6122 47.5814 61.1673 47.2479 59.8291 47.1484C58.4847 47.0485 57.2961 47.1885 56.3848 47.6572C55.937 47.8875 55.7474 48.119 55.6729 48.3086C55.5999 48.4944 55.6021 48.7289 55.7275 49.043C55.9917 49.7043 56.7096 50.494 57.6445 51.3291C58.5675 52.1535 59.6043 52.9412 60.46 53.6406C60.8791 53.9832 61.259 54.3087 61.5391 54.5967C61.6789 54.7405 61.8067 54.8869 61.9033 55.0322C61.9937 55.1681 62.0919 55.3543 62.1045 55.5684C62.1195 55.8237 61.9977 56.0408 61.9014 56.1797C61.794 56.3343 61.6477 56.4906 61.4873 56.6436C61.1651 56.9508 60.7189 57.3052 60.2217 57.6826C59.2097 58.4508 57.9578 59.3393 56.8623 60.2705C56.3175 60.7336 55.8253 61.1967 55.4326 61.6455C55.0363 62.0984 54.763 62.5128 54.6299 62.8779Z" fill="#5B5B5B" stroke="black"/>
<path d="M83.0381 67.1182C83.7463 67.1182 84.2633 67.233 84.6455 67.4209C85.0202 67.6052 85.2907 67.8725 85.4922 68.2266C85.9147 68.969 86.0381 70.0935 86.0381 71.6182C86.0381 73.132 85.9189 74.5385 85.4697 75.5547C85.2495 76.0528 84.9589 76.4358 84.582 76.6963C84.2079 76.9548 83.7128 77.1182 83.0381 77.1182C81.7227 77.1182 80.8791 76.4957 80.3359 75.5146C79.7745 74.5004 79.5381 73.098 79.5381 71.6182C79.5381 70.1334 79.7775 69.0119 80.3066 68.2695C80.8104 67.5628 81.6374 67.1182 83.0381 67.1182Z" fill="#C77C7C" stroke="black"/>
</svg>
