<svg width="181" height="140" viewBox="0 0 181 140" fill="none" xmlns="http://www.w3.org/2000/svg">
<path d="M85.0039 3.11816C88.2691 1.58511 92.0704 1.63176 95.2969 3.24512C129.602 20.3988 148.298 35.0271 174.945 63.1016C178.339 66.6772 179.174 72.0207 176.972 76.4512C166.506 97.5076 156.471 112.105 143.226 121.813C129.948 131.546 113.674 136.201 91.0752 137.873C90.4618 137.918 89.8227 137.915 89.21 137.862C66.9476 135.953 50.7662 131.31 37.4443 121.619C24.1503 111.948 13.9282 97.4117 3.24805 76.1934C1.10073 71.9273 1.77092 66.7686 4.90918 63.1807C30.1153 34.366 49.0486 19.9998 85.0039 3.11816Z" fill="#FFF79F" stroke="black" stroke-width="4"/>
<path d="M69.5039 55.2539C70.1096 53.9324 72.1891 53.9341 72.7793 55.2627C75.1535 60.6073 78.2618 63.576 84.0635 65.4697C85.5632 65.9592 85.6918 68.3812 84.2285 68.9707C78.4128 71.3131 75.078 74.0664 72.7451 78.8857C72.1238 80.1694 70.1023 80.2008 69.4854 78.915C67.1475 74.0428 64.1904 71.0587 58.5117 68.8516C57.022 68.2723 57.054 65.7246 58.5576 65.1826C64.0655 63.199 67.1713 60.3454 69.5039 55.2539Z" fill="#E5D73D"/>
<path d="M69.5039 55.2539C70.1096 53.9324 72.1891 53.9341 72.7793 55.2627C75.1535 60.6073 78.2618 63.576 84.0635 65.4697C85.5632 65.9592 85.6918 68.3812 84.2285 68.9707C78.4128 71.3131 75.078 74.0664 72.7451 78.8857C72.1238 80.1694 70.1023 80.2008 69.4854 78.915C67.1475 74.0428 64.1904 71.0587 58.5117 68.8516C57.022 68.2723 57.054 65.7246 58.5576 65.1826C64.0655 63.199 67.1713 60.3454 69.5039 55.2539Z" stroke="black"/>
<path d="M107.504 55.2539C108.11 53.9324 110.189 53.9341 110.779 55.2627C113.153 60.6073 116.262 63.576 122.063 65.4697C123.563 65.9592 123.692 68.3812 122.229 68.9707C116.413 71.3131 113.078 74.0664 110.745 78.8857C110.124 80.1694 108.102 80.2008 107.485 78.915C105.147 74.0428 102.19 71.0587 96.5117 68.8516C95.022 68.2723 95.054 65.7246 96.5576 65.1826C102.066 63.199 105.171 60.3454 107.504 55.2539Z" fill="#E5D73D"/>
<path d="M107.504 55.2539C108.11 53.9324 110.189 53.9341 110.779 55.2627C113.153 60.6073 116.262 63.576 122.063 65.4697C123.563 65.9592 123.692 68.3812 122.229 68.9707C116.413 71.3131 113.078 74.0664 110.745 78.8857C110.124 80.1694 108.102 80.2008 107.485 78.915C105.147 74.0428 102.19 71.0587 96.5117 68.8516C95.022 68.2723 95.054 65.7246 96.5576 65.1826C102.066 63.199 105.171 60.3454 107.504 55.2539Z" stroke="black"/>
<path d="M89.8242 92.7031C90.2206 93.2915 91.0861 93.2915 91.4824 92.7031L98.6963 81.9932C99.1437 81.3289 98.668 80.4346 97.8672 80.4346H83.4395C82.6386 80.4346 82.1629 81.3289 82.6104 81.9932L89.8242 92.7031Z" fill="#C77C7C"/>
<path d="M89.8242 92.7031C90.2206 93.2915 91.0861 93.2915 91.4824 92.7031L98.6963 81.9932C99.1437 81.3289 98.668 80.4346 97.8672 80.4346H83.4395C82.6386 80.4346 82.1629 81.3289 82.6104 81.9932L89.8242 92.7031Z" stroke="black"/>
</svg>
