<svg width="183" height="144" viewBox="0 0 183 144" fill="none" xmlns="http://www.w3.org/2000/svg">
<path d="M90.8594 2.00391C122.426 2.31452 149.267 20.6847 165.286 43.9111C181.372 67.2353 186.144 94.7896 174.718 113.418C169.068 122.629 157.725 129.797 143.069 134.664C128.47 139.512 110.873 141.976 93.1387 142C75.4055 142.024 57.6362 139.606 42.6943 134.767C27.703 129.911 15.8202 122.704 9.49805 113.344C-3.21881 94.5165 0.944401 66.6823 16.7275 43.2734C32.4499 19.9548 59.3164 1.69368 90.8594 2.00391Z" fill="#F5F5F5" stroke="black" stroke-width="4"/>
<rect x="53" y="84.7324" width="25" height="4" rx="2" transform="rotate(-11.4009 53 84.7324)" fill="#5B5B5B"/>
<rect width="25" height="4" rx="2" transform="matrix(-0.980268 -0.197672 -0.197672 0.980268 127.021 84.7324)" fill="#5B5B5B"/>
<path d="M90.9234 95.4068C91.2691 95.1629 91.7309 95.1629 92.0766 95.4068L100.616 101.433C101.414 101.996 101.016 103.25 100.04 103.25H82.9602C81.9844 103.25 81.5864 101.996 82.3837 101.433L90.9234 95.4068Z" fill="#C77C7C"/>
</svg>
